<?xml version="1.0" encoding="UTF-8"?>
<!-- Generator: visioncortex VTracer 0.6.4 -->
<svg version="1.1" xmlns="http://www.w3.org/2000/svg" width="385" height="245">
<path d="M0 0 C2.41 1.87 4.75 3.68 6.91 5.84 C6.91 6.5 6.91 7.16 6.91 7.84 C7.49 8.07 8.08 8.31 8.68 8.55 C14.8 12.1 18.61 20.34 20.91 26.84 C21.59 29.78 21.59 29.78 21.91 31.84 C26.14 30.98 29.59 29.01 33.37 27 C42.18 22.98 56.63 23.4 65.85 26.04 C79.32 31.29 90.01 40.06 95.92 53.31 C98.84 60.8 98.65 69 96.91 76.84 C98.19 76.88 99.46 76.92 100.78 76.96 C108.01 77.77 114.28 81.63 119.03 87.09 C120.91 89.84 120.91 89.84 120.91 91.84 C121.57 91.84 122.23 91.84 122.91 91.84 C123.55 93.59 124.2 95.34 124.84 97.09 C125.2 98.06 125.56 99.04 125.93 100.04 C129.45 110.14 128.48 119.22 123.91 128.84 C115.91 144.53 101.14 153.25 84.91 158.84 C84.07 159.14 83.24 159.44 82.39 159.75 C75.46 161.88 68.72 162.12 61.53 162.15 C60.58 162.16 59.63 162.16 58.65 162.17 C53.61 162.12 49.67 161.6 44.91 159.84 C42.16 159.67 42.16 159.67 39.91 159.84 C39.49 160.69 39.49 160.69 39.06 161.56 C31.23 176.64 15.32 185.93 -0.53 190.96 C-2.71 191.62 -4.9 192.25 -7.09 192.84 C-7.73 193.02 -8.37 193.2 -9.03 193.39 C-28.49 198.38 -51.62 196.08 -69.28 186.54 C-78.18 181.17 -86.56 175.46 -91.09 165.84 C-96.07 166.83 -100.52 169.25 -105.1 171.37 C-114.88 175.29 -125.4 175.28 -135.78 175.28 C-136.49 175.28 -137.2 175.28 -137.93 175.28 C-148.73 175.26 -158.19 174.52 -168.09 169.84 C-169.61 169.15 -169.61 169.15 -171.16 168.45 C-181.32 163.4 -189.61 155.84 -195.09 145.84 C-196.93 139.06 -197.08 131.27 -194.09 124.84 C-191.82 121.58 -189.53 118.88 -186.09 116.84 C-184.77 116.84 -183.45 116.84 -182.09 116.84 C-182.09 115.52 -182.09 114.2 -182.09 112.84 C-182.93 112.47 -182.93 112.47 -183.78 112.09 C-191.38 107.98 -195.08 101.53 -197.55 93.48 C-200.04 81.45 -197.21 72.08 -191.28 61.65 C-184.44 52.86 -177.51 44.08 -166.09 41.84 C-164.64 41.66 -163.18 41.5 -161.72 41.34 C-159.92 41.09 -159.92 41.09 -158.09 40.84 C-157.6 39.85 -157.6 39.85 -157.09 38.84 C-152.92 37.45 -148.84 37.35 -144.47 37.09 C-143.17 36.99 -143.17 36.99 -141.85 36.88 C-134.88 36.48 -129.2 37.65 -123.02 40.94 C-121 42.05 -121 42.05 -118.09 41.84 C-118.16 40.71 -118.22 39.57 -118.28 38.4 C-118.2 26.59 -110.79 17.23 -103.09 8.84 C-74.8 -16.34 -31.82 -22.22 0 0 Z M-20.84 77.03 C-22.51 79.45 -22.46 80.96 -22.09 83.84 C-20.21 86.16 -20.21 86.16 -17.09 86.09 C-13.98 86.16 -13.98 86.16 -12.09 83.84 C-11.72 80.96 -11.67 79.45 -13.34 77.03 C-15.99 75.23 -18.19 75.23 -20.84 77.03 Z M-83.91 78.96 C-85.4 80.91 -85.4 80.91 -84.84 83.96 C-84.38 86.72 -84.38 86.72 -83.09 87.84 C-80.14 88.17 -80.14 88.17 -77.09 87.84 C-74.8 85.08 -74.8 85.08 -75.34 82.28 C-75.93 79.69 -75.93 79.69 -78.09 77.84 C-81.88 77.49 -81.88 77.49 -83.91 78.96 Z M-39.78 103.21 C-41.3 104.75 -41.3 104.75 -41.09 106.84 C-48.4 108.06 -48.4 108.06 -51.47 107.09 C-53.09 105.84 -53.09 105.84 -55.09 102.84 C-56.08 102.84 -57.07 102.84 -58.09 102.84 C-57.6 106.5 -57.07 108.55 -54.09 110.84 C-49.58 112.35 -44.62 113.1 -40.21 110.9 C-37.58 108.87 -36.21 107.2 -35.22 104.03 C-35.18 103.31 -35.14 102.58 -35.09 101.84 C-38.07 101.52 -38.07 101.52 -39.78 103.21 Z " fill="#FCEFC7" transform="translate(224.09375,20.16015625)"/>
<path d="M0 0 C127.05 0 254.1 0 385 0 C385 80.85 385 161.7 385 245 C257.95 245 130.9 245 0 245 C0 164.15 0 83.3 0 0 Z M129 18 C128.04 18.64 128.04 18.64 127.05 19.29 C116.43 26.63 106.14 37.83 103.42 50.75 C103.07 53.45 103.07 53.45 103 57 C102.45 56.81 101.91 56.61 101.35 56.41 C88.98 52.14 75.73 49.4 63 54 C62.12 54.28 61.25 54.57 60.34 54.86 C44.39 60.65 32.94 72.47 25.22 87.32 C20.7 97.22 20.26 109.79 24 120 C26.98 125.26 30.44 131.22 36 134 C35.13 134.83 35.13 134.83 34.25 135.68 C33.14 136.77 33.14 136.77 32 137.88 C30.89 138.95 30.89 138.95 29.75 140.05 C27.78 141.81 27.78 141.81 28 144 C27.34 144 26.68 144 26 144 C23.26 152.39 23.37 160.86 27 169 C27.66 169 28.32 169 29 169 C29.17 169.87 29.17 169.87 29.34 170.76 C31.72 178.83 39.87 185.63 46.9 189.66 C49.9 191.2 52.92 192.63 56 194 C56.71 194.32 57.43 194.64 58.16 194.97 C75.5 202.09 102.6 202.34 120.01 195.17 C124.13 193.32 128.08 191.24 132 189 C132.24 189.9 132.49 190.79 132.74 191.71 C136.33 201.08 146.71 207.58 155.5 211.62 C157.33 212.43 159.16 213.22 161 214 C162.08 214.51 163.16 215.02 164.28 215.54 C185.82 223.99 211.44 220.77 232.28 212.05 C244.81 206.51 259.41 198.28 265.25 185.2 C265.5 184.47 265.75 183.75 266 183 C266.74 183.22 267.48 183.43 268.25 183.66 C288.65 189.05 308.26 185.17 327 176 C330.89 173.58 334.45 170.9 338 168 C338.67 167.51 339.33 167.02 340.02 166.51 C348.15 160.24 353.15 149.67 356 140 C357.48 127.71 354.03 116.27 346.81 106.31 C340.78 98.96 334.31 95.48 325 94 C325.17 93.17 325.33 92.35 325.5 91.5 C327.19 79.68 323.9 70.16 316.88 60.56 C308.09 49.61 295.78 43.17 282 41 C269.82 39.99 259.22 42.47 248 47 C247.84 45.93 247.84 45.93 247.68 44.85 C244.49 31.42 232.57 20.61 221.31 13.5 C219.22 12.31 217.12 11.14 215 10 C213.86 9.37 213.86 9.37 212.71 8.73 C187.16 -4.07 151.41 1.64 129 18 Z " fill="#FE02FE" transform="translate(0,0)"/>
<path d="M0 0 C0.66 0.66 1.32 1.32 2 2 C1.67 2.33 1.34 2.66 1 3 C-0.9 2.91 -2.8 2.75 -4.69 2.56 C-21.07 1.24 -32.96 1.84 -46.62 11.71 C-49 13 -49 13 -51.31 12.7 C-51.87 12.47 -52.43 12.24 -53 12 C-51.24 6.71 -45.69 4.63 -41 2 C-28.21 -4.11 -13.35 -5.39 0 0 Z " fill="#121210" transform="translate(96,55)"/>
<path d="M0 0 C2.9 1.36 5.4 2.95 8 4.81 C23.91 15.47 41.45 16.55 60 17 C60 17.33 60 17.66 60 18 C59.4 18.03 58.79 18.05 58.17 18.08 C55.4 18.19 52.64 18.32 49.88 18.44 C48.45 18.5 48.45 18.5 46.99 18.56 C42.24 18.77 37.7 19.21 33 20 C21.44 19.69 8.84 12.02 0 5 C-0.44 2.19 -0.44 2.19 0 0 Z " fill="#1B1A17" transform="translate(142,198)"/>
<path d="M0 0 C0.66 0 1.32 0 2 0 C2.26 0.85 2.26 0.85 2.52 1.72 C5.21 10.31 7.63 15.63 15.39 20.54 C16.19 21.26 16.19 21.26 17 22 C17 23.32 17 24.64 17 26 C15.92 26.34 15.92 26.34 14.81 26.69 C11.45 28.26 9.51 30.29 7 33 C6.34 33.66 5.68 34.32 5 35 C4.32 37.66 4.32 37.66 3.88 40.62 C3.62 42.13 3.62 42.13 3.37 43.66 C3.25 44.43 3.12 45.21 3 46 C2.67 46 2.34 46 2 46 C2 43.69 2 41.38 2 39 C1.34 39 0.68 39 0 39 C0.5 36.03 0.5 36.03 1 33 C1.66 33 2.32 33 3 33 C3.21 32.46 3.41 31.93 3.62 31.38 C5.58 28 8.18 25.7 11 23 C10.1 22.64 10.1 22.64 9.19 22.27 C6.56 20.75 5.55 19.25 3.94 16.69 C3.43 15.88 2.92 15.08 2.4 14.25 C1.94 13.51 1.48 12.77 1 12 C0.36 11.07 -0.28 10.14 -0.94 9.19 C-2 7 -2 7 -1.75 4.88 C-1.5 4.26 -1.25 3.64 -1 3 C-0.67 2.01 -0.34 1.02 0 0 Z " fill="#1E1D19" transform="translate(25,111)"/>
<path d="M0 0 C0.33 0 0.66 0 1 0 C1.74 9.22 0.19 15.79 -4 24 C-4.63 25.32 -4.63 25.32 -5.28 26.66 C-9.06 33.76 -14.47 38.39 -21 43 C-21.33 43 -21.66 43 -22 43 C-22.38 40.88 -22.38 40.88 -22 38 C-20.26 35.7 -18.3 33.74 -16 32 C-15.34 32 -14.68 32 -14 32 C-13.74 31.48 -13.48 30.96 -13.21 30.42 C-12.28 28.56 -11.33 26.71 -10.38 24.86 C-7.05 18.36 -4.06 12.03 -2 5 C-1.67 5 -1.34 5 -1 5 C-0.67 3.35 -0.34 1.7 0 0 Z " fill="#1A1A17" transform="translate(355,128)"/>
<path d="M0 0 C2.7 1.14 4.46 2.4 6.7 4.36 C9.91 7.06 13.37 8.91 17.19 10.62 C17.84 10.92 18.5 11.22 19.18 11.53 C27.91 15.41 36.46 17.4 46 18 C39.98 21.3 33.33 21.71 26.71 19.98 C16.23 16.19 6.77 11.11 -1 3 C-0.67 2.01 -0.34 1.02 0 0 Z " fill="#11100F" transform="translate(36,177)"/>
<path d="M0 0 C0.23 2.32 0.23 2.32 0 5 C-5.03 10.4 -13.75 12.53 -20.56 14.88 C-21.45 15.19 -22.33 15.5 -23.25 15.82 C-28.78 17.63 -34.16 18.94 -40 18 C-40.99 17.34 -41.98 16.68 -43 16 C-42.14 15.76 -41.28 15.52 -40.39 15.27 C-34.25 13.52 -28.12 11.76 -22 9.94 C-20.99 9.64 -19.98 9.34 -18.94 9.03 C-13.39 7.09 -8.61 4.19 -3.73 0.99 C-2 0 -2 0 0 0 Z " fill="#10100E" transform="translate(333,167)"/>
<path d="M0 0 C7.99 0.5 14.53 8.04 19.81 13.42 C29 24.26 29 24.26 29 30 C27.68 30.33 26.36 30.66 25 31 C24.7 30.35 24.39 29.7 24.08 29.02 C18.33 17.02 9.59 9.69 -1 2 C-0.67 1.34 -0.34 0.68 0 0 Z " fill="#141411" transform="translate(218,14)"/>
<path d="M0 0 C1.32 0.66 2.64 1.32 4 2 C3.34 2.62 2.68 3.24 2 3.88 C-5.91 11.83 -11.77 20.23 -15 31 C-16.32 30.67 -17.64 30.34 -19 30 C-16.34 18.3 -10.14 6.76 0 0 Z " fill="#151512" transform="translate(42,66)"/>
<path d="M0 0 C1.65 0 3.3 0 5 0 C4.34 0.66 3.68 1.32 3 2 C3.33 2.66 3.66 3.32 4 4 C3.34 4 2.68 4 2 4 C1.77 4.71 1.54 5.41 1.3 6.14 C-0.25 9.55 -2.36 12.09 -4.88 14.81 C-5.35 15.33 -5.83 15.85 -6.32 16.39 C-11.26 21.58 -16.84 25.34 -23 29 C-23.59 27.12 -23.59 27.12 -24 25 C-21.77 21.96 -18.83 20.24 -15.69 18.25 C-8.54 13.58 -3.91 7.51 0 0 Z " fill="#161614" transform="translate(264,179)"/>
<path d="M0 0 C7.58 3.91 15.33 9.38 19.27 17.17 C19.27 18.49 19.27 19.81 19.27 21.17 C16.01 19.78 14.32 18.26 12.15 15.48 C5.95 8.19 -1.88 3.61 -10.73 0.17 C-8.18 -4.93 -3.84 -1.82 0 0 Z " fill="#0F0E0B" transform="translate(299.7265625,46.828125)"/>
<path d="M0 0 C0.33 0.66 0.66 1.32 1 2 C1.66 2 2.32 2 3 2 C1.85 5.07 0.51 7.89 -1.06 10.75 C-2.97 14.48 -3.56 17.77 -3.82 21.92 C-4 24.04 -4.43 25.96 -5 28 C-8.92 27.22 -12.36 25.61 -16 24 C-15.34 23.34 -14.68 22.68 -14 22 C-14.33 21.34 -14.66 20.68 -15 20 C-12.61 20.58 -10.33 21.22 -8 22 C-7.96 20.76 -7.92 19.52 -7.88 18.25 C-7.24 12.17 -4.4 4.4 0 0 Z " fill="#171714" transform="translate(111,35)"/>
<path d="M0 0 C0.66 0.66 1.32 1.32 2 2 C-1.12 3.04 -3.22 3.1 -6.48 3.06 C-8.1 3.05 -8.1 3.05 -9.76 3.04 C-12.03 3.01 -14.29 2.99 -16.56 2.96 C-22.48 2.92 -28.14 3.08 -34 4 C-34.33 3.01 -34.66 2.02 -35 1 C-23.34 -2.59 -11.8 -3.54 0 0 Z " fill="#100F0C" transform="translate(291,43)"/>
<path d="M0 0 C-0.66 0 -1.32 0 -2 0 C-2 0.99 -2 1.98 -2 3 C-8.82 6.94 -15.43 9.68 -23.06 11.56 C-23.8 11.75 -24.54 11.95 -25.3 12.15 C-27.41 12.63 -27.41 12.63 -31 13 C-33 11.59 -33 11.59 -34 10 C-30.43 7.97 -26.78 7.1 -22.81 6.12 C-16.91 4.62 -11.43 2.76 -6 0 C-3.51 -1.25 -2.59 -0.78 0 0 Z " fill="#151512" transform="translate(242,205)"/>
<path d="M0 0 C0 1.65 0 3.3 0 5 C0.95 4.9 1.9 4.79 2.88 4.69 C9.34 4.74 14.86 7.93 19.42 12.34 C21.35 14.51 23.21 16.71 25 19 C23.68 19.99 22.36 20.98 21 22 C20.38 20.97 19.76 19.94 19.12 18.88 C15.29 13.54 9.79 9.85 3.35 8.41 C1.24 8.17 -0.88 8.07 -3 8 C-3.93 4.99 -4.04 4.13 -3 1 C-1 0 -1 0 0 0 Z " fill="#171713" transform="translate(324,90)"/>
<path d="M0 0 C-2.49 2.93 -4.99 3.93 -8.56 5.25 C-12.98 6.99 -16.53 8.94 -20.31 11.81 C-23.34 14.07 -25.3 15.45 -29.12 15.44 C-30.07 15.29 -31.02 15.15 -32 15 C-24.52 7.25 -11.55 -3.5 0 0 Z " fill="#11110F" transform="translate(154,9)"/>
<path d="M0 0 C1.6 1.89 1.6 1.89 3.06 4.25 C3.57 5.06 4.08 5.87 4.61 6.7 C5.07 7.46 5.53 8.22 6 9 C6.62 10.01 7.24 11.02 7.88 12.06 C8.25 12.7 8.62 13.34 9 14 C8.34 14.66 7.68 15.32 7 16 C2.61 12.03 -0.69 8.99 -2 3 C-2.65 3.36 -3.3 3.72 -3.98 4.09 C-12.66 8.7 -12.66 8.7 -18 8 C-14.28 3.43 -6.05 -2.9 0 0 Z " fill="#12110F" transform="translate(134,186)"/>
<path d="M0 0 C0 0.33 0 0.66 0 1 C-5.94 1.33 -11.88 1.66 -18 2 C-14.04 2.33 -10.08 2.66 -6 3 C-6 3.33 -6 3.66 -6 4 C-7.28 4.05 -8.56 4.1 -9.88 4.15 C-11.58 4.22 -13.29 4.3 -15 4.38 C-15.84 4.41 -16.68 4.44 -17.54 4.47 C-22.97 4.72 -27.76 5.6 -33 7 C-36.61 6.68 -37.93 6.05 -41 4 C-27.35 -0.56 -14.27 -0.44 0 0 Z " fill="#1D1D1A" transform="translate(191,3)"/>
<path d="M0 0 C-0.33 1.32 -0.66 2.64 -1 4 C-4.5 4.2 -8 4.38 -11.5 4.56 C-12.97 4.65 -12.97 4.65 -14.48 4.73 C-20.13 5.01 -25.43 5.09 -31 4 C-31.33 3.34 -31.66 2.68 -32 2 C-29.67 0.84 -28.12 0.8 -25.53 0.68 C-24.63 0.64 -23.73 0.6 -22.8 0.56 C-21.85 0.52 -20.91 0.48 -19.94 0.44 C-18.56 0.37 -18.56 0.37 -17.16 0.31 C-11.43 0.05 -5.73 -0.04 0 0 Z " fill="#0B0B0A" transform="translate(211,215)"/>
<path d="M0 0 C0.99 0 1.98 0 3 0 C2.79 3.69 2 5.01 -0.5 7.81 C-3.85 10.37 -6.75 10.6 -10.88 10.37 C-14.85 9.68 -17.22 7.78 -20 5 C-20 3.68 -20 2.36 -20 1 C-17.59 1.42 -16.31 1.66 -14.62 3.5 C-12.25 5.69 -10.16 5.74 -7 6 C-4.77 5.94 -4.77 5.94 -3 5 C-1.77 3.05 -1.77 3.05 -1 1 C-0.67 0.67 -0.34 0.34 0 0 Z " fill="#11100B" transform="translate(186,122)"/>
<path d="M0 0 C4.45 3.6 6.33 9.47 7 15 C7.15 19.86 6.96 24.22 6 29 C6.99 29.33 7.98 29.66 9 30 C7.68 30 6.36 30 5 30 C3.04 26.7 2.75 24.12 2.62 20.31 C2.29 15.15 1.2 11.32 -1.16 6.74 C-2 5 -2 5 -2 3 C-1.34 3 -0.68 3 0 3 C0 2.01 0 1.02 0 0 Z " fill="#1F1F1E" transform="translate(319,65)"/>
<path d="M0 0 C4.18 0.07 8.34 0.48 12.5 0.81 C13.68 0.9 14.86 0.98 16.07 1.06 C17.19 1.15 18.31 1.24 19.47 1.33 C21.02 1.45 21.02 1.45 22.61 1.57 C23.79 1.78 23.79 1.78 25 2 C25.33 2.66 25.66 3.32 26 4 C26.99 4.66 27.98 5.32 29 6 C4.75 6.5 4.75 6.5 -1 1 C-0.67 0.67 -0.34 0.34 0 0 Z " fill="#131310" transform="translate(267,180)"/>
<path d="M0 0 C0.66 0 1.32 0 2 0 C2.14 1.04 2.27 2.08 2.41 3.15 C3.77 12.31 5.72 18.84 12 26 C11.01 26.99 10.02 27.98 9 29 C8.16 27.9 7.33 26.8 6.5 25.69 C6.04 25.07 5.57 24.46 5.09 23.82 C4 22 4 22 4 19 C3.34 19 2.68 19 2 19 C0.29 15.22 -0.37 11.94 -0.69 7.81 C-0.77 6.77 -0.86 5.72 -0.95 4.64 C-1 2 -1 2 0 0 Z " fill="#131412" transform="translate(25,150)"/>
<path d="M0 0 C8.88 0.15 15.38 3.85 23 8 C22.01 8.99 21.02 9.98 20 11 C15.12 9.42 10.31 7.67 5.49 5.9 C3.67 5.24 1.84 4.61 0 4 C0 2.68 0 1.36 0 0 Z " fill="#151512" transform="translate(197,5)"/>
<path d="M0 0 C3 1 3 1 4.13 3 C4.46 3.8 4.79 4.61 5.12 5.44 C5.46 6.24 5.79 7.04 6.13 7.87 C6.42 8.57 6.71 9.28 7 10 C7.33 10.66 7.66 11.32 8 12 C8.07 14.72 8.09 17.41 8.06 20.12 C8.06 20.88 8.05 21.63 8.05 22.41 C8.04 24.27 8.02 26.14 8 28 C5.01 24.64 4.31 21.69 3.5 17.31 C2.38 11.66 0.96 6.41 -1 1 C-0.67 0.67 -0.34 0.34 0 0 Z " fill="#0F0F0D" transform="translate(347,110)"/>
<path d="M0 0 C2.44 0.81 2.44 0.81 4.44 2.81 C4.69 5.31 4.69 5.31 4.44 7.81 C2.44 9.81 2.44 9.81 -0.56 10.06 C-3.56 9.81 -3.56 9.81 -5.56 7.81 C-5.93 4.94 -5.94 3.4 -4.38 0.94 C-2.56 -0.19 -2.56 -0.19 0 0 Z " fill="#0E0D0A" transform="translate(207.5625,96.1875)"/>
<path d="M0 0 C1.05 -0.01 2.09 -0.02 3.17 -0.04 C4.68 -0.04 4.68 -0.04 6.22 -0.04 C7.14 -0.05 8.05 -0.05 9 -0.06 C11.62 0.2 13.25 0.86 15.5 2.19 C12.2 3.29 9.77 3.3 6.3 3.29 C5.09 3.28 3.88 3.28 2.64 3.28 C1.38 3.27 0.11 3.26 -1.19 3.25 C-3.1 3.24 -3.1 3.24 -5.05 3.24 C-8.2 3.22 -11.35 3.21 -14.5 3.19 C-14.83 2.53 -15.16 1.87 -15.5 1.19 C-10.41 -0.3 -5.26 0 0 0 Z " fill="#060606" transform="translate(89.5,195.8125)"/>
<path d="M0 0 C3.3 0.33 4.62 0.62 7 3 C6.43 8.57 6.43 8.57 5 10 C2.06 10.25 2.06 10.25 -1 10 C-3 7 -3 7 -2.75 4.44 C-2 2 -2 2 0 0 Z " fill="#100F0B" transform="translate(142,98)"/>
<path d="M0 0 C-2.67 2.67 -4.66 2.63 -8.38 3.19 C-9.52 3.37 -10.66 3.55 -11.84 3.73 C-14.78 3.98 -16.23 3.71 -19 3 C-20.51 2.86 -22.03 2.76 -23.55 2.68 C-24.39 2.64 -25.24 2.6 -26.11 2.56 C-26.98 2.52 -27.85 2.48 -28.75 2.44 C-30.08 2.37 -30.08 2.37 -31.44 2.31 C-33.63 2.2 -35.81 2.1 -38 2 C-38 1.67 -38 1.34 -38 1 C-37.39 0.98 -36.78 0.96 -36.16 0.94 C-21.51 0.65 -21.51 0.65 -7.12 -1.79 C-4.32 -2.07 -2.51 -1.19 0 0 Z " fill="#24241F" transform="translate(120,194)"/>
<path d="M0 0 C-10.39 0.49 -10.39 0.49 -21 1 C-21.33 1.99 -21.66 2.98 -22 4 C-23.83 4.22 -23.83 4.22 -25.69 4.44 C-28.83 4.83 -31.91 5.32 -35 6 C-26.62 -2.38 -10.54 -5.27 0 0 Z " fill="#DFD8B8" transform="translate(88,58)"/>
<path d="M0 0 C-1.28 1.71 -2.62 3.37 -4 5 C-4.66 5 -5.32 5 -6 5 C-6.25 5.58 -6.5 6.16 -6.75 6.75 C-8.19 9.35 -9.74 11.08 -12 13 C-12.99 13 -13.98 13 -15 13 C-14.42 9.17 -12.69 7.15 -10.12 4.31 C-9.43 3.52 -8.73 2.74 -8.01 1.93 C-5.11 -0.85 -3.83 -1.28 0 0 Z " fill="#0E0D0B" transform="translate(127,24)"/>
<path d="M0 0 C1.32 0 2.64 0 4 0 C4 0.99 4 1.98 4 3 C4.74 2.67 5.49 2.34 6.25 2 C9 1 9 1 13 1 C13 1.99 13 2.98 13 4 C11.39 5.42 11.39 5.42 9.25 6.75 C8.55 7.2 7.86 7.65 7.14 8.11 C4.62 9.16 3.52 8.93 1 8 C0.67 5.36 0.34 2.72 0 0 Z " fill="#1C1C1A" transform="translate(244,44)"/>
<path d="M0 0 C0.99 0 1.98 0 3 0 C3.05 2.42 3.09 4.83 3.12 7.25 C3.15 8.27 3.15 8.27 3.18 9.32 C3.21 13.06 3.08 15.82 1 19 C-1.39 15.42 -1.24 13.75 -1.19 9.5 C-1.18 8.36 -1.17 7.21 -1.17 6.03 C-1 3 -1 3 0 0 Z " fill="#0B0A08" transform="translate(23,96)"/>
<path d="M0 0 C9.24 0 18.48 0 28 0 C28.33 1.32 28.66 2.64 29 4 C28.3 3.94 27.59 3.88 26.87 3.82 C25.88 3.73 24.89 3.65 23.88 3.56 C22.79 3.47 21.71 3.38 20.59 3.28 C18.13 3.09 15.66 2.92 13.19 2.78 C11.95 2.71 10.71 2.64 9.44 2.56 C7.7 2.47 7.7 2.47 5.93 2.38 C3 2 3 2 0 0 Z " fill="#050503" transform="translate(168,4)"/>
</svg>
