<?xml version="1.0" encoding="UTF-8"?>
<!-- Generator: visioncortex VTracer 0.6.4 -->
<svg version="1.1" xmlns="http://www.w3.org/2000/svg" width="78" height="52">
<path d="M0 0 C25.74 0 51.48 0 78 0 C78 17.16 78 34.32 78 52 C52.26 52 26.52 52 0 52 C0 34.84 0 17.68 0 0 Z M46 37 C41.25 35.12 41.25 35.12 39 34 C37 33.96 35 33.96 33 34 C32.67 34.99 32.34 35.98 32 37 C33.26 37.14 34.52 37.29 35.81 37.44 C38.43 37.74 40.47 38.16 43 39 C43.69 41.06 43.69 41.06 44 43 C44.99 42.67 45.98 42.34 47 42 C47.44 41.02 47.44 41.02 47.9 40.02 C49 38 49 38 51.16 37.17 C51.98 37.03 52.79 36.89 53.62 36.75 C54.44 36.6 55.26 36.45 56.1 36.3 C56.73 36.2 57.35 36.1 58 36 C57.67 35.01 57.34 34.02 57 33 C51.87 32.52 49.74 33.48 46 37 Z " fill="#FCFCFC" transform="translate(0,0)"/>
<path d="M0 0 C0.33 0.99 0.66 1.98 1 3 C0.08 3.13 0.08 3.13 -0.86 3.26 C-6.19 4.04 -6.19 4.04 -9.94 7.62 C-10.29 8.41 -10.64 9.19 -11 10 C-11.66 10 -12.32 10 -13 10 C-13.33 8.68 -13.66 7.36 -14 6 C-17.63 5.34 -21.26 4.68 -25 4 C-24.67 3.01 -24.34 2.02 -24 1 C-20.4 0.75 -18.5 0.69 -15.38 2.62 C-14.59 3.08 -13.81 3.53 -13 4 C-10.82 3.41 -10.82 3.41 -9 2 C-5.56 -0.29 -4.01 -0.18 0 0 Z " fill="#2D2D2D" transform="translate(57,33)"/>
</svg>
